<svg width="20" height="20" viewBox="0 0 20 20" fill="none" xmlns="http://www.w3.org/2000/svg">
<g clip-path="url(#clip0)">
<path d="M9.90937 2.78595C6.28741 2.78595 3.34085 5.73251 3.34085 9.35446V16.3307H4.69984V9.35446C4.69984 6.482 7.03663 4.14493 9.90937 4.14493C12.7821 4.14493 15.1189 6.48196 15.1189 9.35446V16.3307H16.4779V9.35446C16.4779 5.73251 13.5313 2.78595 9.90937 2.78595Z" fill="white"/>
<path d="M17.248 15.6512H2.75197C2.37666 15.6512 2.07248 15.9554 2.07248 16.3307C2.07248 16.706 2.37666 17.0102 2.75197 17.0102H17.248C17.6233 17.0102 17.9275 16.706 17.9275 16.3307C17.9275 15.9554 17.6233 15.6512 17.248 15.6512Z" fill="white"/>
<path d="M9.90941 0C8.76039 0 7.82562 0.934766 7.82562 2.08379C7.82562 3.23281 8.76039 4.16758 9.90941 4.16758C11.0584 4.16758 11.9932 3.23281 11.9932 2.08379C11.9932 0.934766 11.0584 0 9.90941 0ZM9.90941 2.80859C9.51644 2.80859 9.18461 2.47656 9.18461 2.08379C9.18461 1.69082 9.51644 1.35898 9.90941 1.35898C10.3024 1.35898 10.6342 1.69082 10.6342 2.08379C10.6342 2.47676 10.3024 2.80859 9.90941 2.80859Z" fill="white"/>
<path d="M11.0872 16.3307V17.5085C11.0872 18.133 10.5791 18.641 9.95469 18.641C9.33024 18.641 8.82219 18.133 8.82219 17.5085V16.3307H7.46317V17.5085C7.46317 18.8822 8.58094 20 9.95469 20C11.3284 20 12.4462 18.8822 12.4462 17.5085V16.3307H11.0872Z" fill="white"/>
</g>
<defs>
<clipPath id="clip0">
<rect width="20" height="20" fill="white"/>
</clipPath>
</defs>
</svg>
