<svg xmlns="http://www.w3.org/2000/svg" viewBox="0 0 24 24"><defs><style>.cls-1{fill:#1a44a4;}.cls-2{fill:#fff;}</style></defs><g id="lịch_đã_đọc" data-name="lịch đã đọc"><path class="cls-1" d="M23.21,5.57V18.79A2.17,2.17,0,0,1,21.13,21H2.88A2.17,2.17,0,0,1,.79,18.79V5.57a2,2,0,0,1,2.09-2h2v1.2a1.46,1.46,0,1,0,2.92,0V3.59h8.4v1.2a1.46,1.46,0,1,0,2.92,0V3.59h2A2,2,0,0,1,23.21,5.57Z"/><rect class="cls-2" x="3.86" y="11.04" width="2.8" height="2.8"/><rect class="cls-2" x="8.36" y="11.04" width="2.8" height="2.8"/><rect class="cls-2" x="12.85" y="11.04" width="2.8" height="2.8"/><rect class="cls-2" x="17.35" y="11.04" width="2.8" height="2.8"/><rect class="cls-2" x="3.86" y="15" width="2.8" height="2.8"/><rect class="cls-2" x="8.36" y="15" width="2.8" height="2.8"/><rect class="cls-2" x="12.85" y="15" width="2.8" height="2.8"/><rect class="cls-2" x="17.35" y="15" width="2.8" height="2.8"/><rect class="cls-1" x="5.5" y="2.3" width="1.69" height="3.28" rx="0.84"/><rect class="cls-1" x="16.79" y="2.3" width="1.69" height="3.28" rx="0.84"/></g></svg>