<svg width="16" height="16" viewBox="0 0 16 16" fill="none" xmlns="http://www.w3.org/2000/svg">
<path d="M14.188 5.72312H13.8039V3.86919C13.8039 3.85754 13.802 3.84599 13.8005 3.83417C13.7999 3.76063 13.7764 3.68826 13.726 3.63106L10.6412 0.107301C10.6403 0.106309 10.6393 0.106017 10.6387 0.105112C10.6203 0.0844807 10.5989 0.0674095 10.5762 0.0527019C10.5695 0.0481204 10.5627 0.044356 10.5557 0.0404749C10.5361 0.0298236 10.5152 0.0208648 10.4938 0.0144157C10.488 0.0128983 10.4828 0.0105054 10.477 0.00892956C10.4536 0.00344343 10.4294 0 10.405 0H2.82343C2.47722 0 2.196 0.281573 2.196 0.627462V5.72295H1.81188C1.31661 5.72295 0.915039 6.12437 0.915039 6.6197V11.2832C0.915039 11.7783 1.31661 12.1801 1.81188 12.1801H2.196V15.3726C2.196 15.7185 2.47722 16 2.82343 16H13.1764C13.5223 16 13.8039 15.7185 13.8039 15.3726V12.1802H14.188C14.6831 12.1802 15.0847 11.7785 15.0847 11.2834V6.61987C15.0848 6.1244 14.6831 5.72312 14.188 5.72312ZM2.82343 0.627462H10.0912V3.83761C10.0912 4.01095 10.2318 4.15134 10.4049 4.15134H13.1764V5.72309H2.82343V0.627462ZM7.5468 9.13909C6.76823 8.86796 6.26097 8.43718 6.26097 7.7562C6.26097 6.95651 6.92809 6.34475 8.03326 6.34475C8.56165 6.34475 8.95093 6.45596 9.22877 6.58132L8.99269 7.43634C8.80505 7.34568 8.47145 7.21363 8.01248 7.21363C7.55383 7.21363 7.33141 7.42225 7.33141 7.66551C7.33141 7.96453 7.59542 8.09649 8.20044 8.32594C9.02748 8.63174 9.41676 9.06246 9.41676 9.72298C9.41676 10.5082 8.81209 11.1758 7.52602 11.1758C6.99089 11.1758 6.46238 11.0364 6.19835 10.8907L6.41371 10.0148C6.69887 10.1611 7.13668 10.3068 7.58868 10.3068C8.07516 10.3068 8.33246 10.1052 8.33246 9.79915C8.33231 9.50704 8.10974 9.34038 7.5468 9.13909ZM2.02727 8.83303C2.02727 7.23444 3.16751 6.34475 4.58516 6.34475C5.13441 6.34475 5.55145 6.45596 5.73926 6.55337L5.52355 7.39426C5.30819 7.30427 5.00902 7.22095 4.63377 7.22095C3.7927 7.22095 3.1395 7.72798 3.1395 8.77047C3.1395 9.70889 3.69544 10.2996 4.64107 10.2996C4.96052 10.2996 5.31508 10.2302 5.52355 10.1467L5.68355 10.9739C5.48885 11.0714 5.05107 11.1758 4.48104 11.1758C2.86145 11.1758 2.02727 10.1676 2.02727 8.83303ZM13.1764 15.2025H2.82343V12.1802H13.1764V15.2025ZM12.4756 11.106H11.2383L9.73691 6.42132H10.898L11.4678 8.40257C11.6276 8.95837 11.7736 9.49356 11.885 10.0775H11.9057C12.0238 9.51436 12.1697 8.95834 12.3296 8.42312L12.9275 6.42132H14.0538L12.4756 11.106Z" fill="white"/>
</svg>
