<svg width="12" height="11" viewBox="0 0 12 11" fill="none" xmlns="http://www.w3.org/2000/svg">
<path d="M1.40625 0.75H10.5938C11.3692 0.75 12 1.38084 12 2.15625V3.31629L6.83927 7.15491C6.58828 7.34158 6.29414 7.43494 6 7.43494C5.70586 7.43494 5.41172 7.34161 5.16073 7.15491L0 3.31629V2.15625C0 1.38084 0.630844 0.75 1.40625 0.75ZM0.9375 2.84522L5.72023 6.40266C5.88757 6.52713 6.11243 6.52713 6.27975 6.40266L11.0625 2.84522V2.15625C11.0625 1.89778 10.8522 1.6875 10.5938 1.6875H1.40625C1.14778 1.6875 0.9375 1.89778 0.9375 2.15625V2.84522Z" fill="#FFA12A"/>
<path d="M0.9375 5.18205L0 4.48474V9.0938C0 9.8692 0.630844 10.5 1.40625 10.5H10.5938C11.3692 10.5 12 9.8692 12 9.0938V4.48474L11.0625 5.18205V9.0938C11.0625 9.35226 10.8522 9.56255 10.5938 9.56255H1.40625C1.14778 9.56255 0.9375 9.35226 0.9375 9.0938V5.18205Z" fill="#1CA06F"/>
</svg>
