<svg width="24" height="24" viewBox="0 0 24 24" fill="none" xmlns="http://www.w3.org/2000/svg">
<path d="M24 12C24 14.3687 23.2969 16.6723 21.9668 18.6617C21.6791 19.092 21.0969 19.2078 20.6664 18.9199C20.2359 18.6323 20.1204 18.05 20.408 17.6195C21.5314 15.9395 22.125 13.9964 22.125 12C22.125 6.41711 17.5829 1.875 12 1.875C6.41711 1.875 1.875 6.41711 1.875 12C1.875 17.5829 6.41711 22.125 12 22.125C13.8519 22.125 15.663 21.6207 17.2377 20.6669C17.6805 20.3987 18.2569 20.5402 18.5251 20.983C18.7936 21.4259 18.652 22.0023 18.2091 22.2706C16.3414 23.402 14.1943 24 12 24C8.79474 24 5.78119 22.7518 3.51471 20.4853C1.24823 18.2188 0 15.2053 0 12C0 8.79474 1.24823 5.78119 3.51471 3.51471C5.78119 1.24823 8.79474 0 12 0C15.2053 0 18.2188 1.24823 20.4853 3.51471C22.7518 5.78119 24 8.79474 24 12ZM18.75 12C18.75 11.4822 18.3303 11.0625 17.8125 11.0625H8.10077L11.489 7.69629C11.8563 7.33136 11.8581 6.73773 11.4932 6.37042C11.1282 6.00311 10.5346 6.00128 10.1673 6.36621L6.50171 10.0082C5.96649 10.5399 5.67188 11.2473 5.67188 12C5.67188 12.7527 5.96649 13.4601 6.50171 13.9916L10.1673 17.6338C10.3502 17.8154 10.5892 17.9062 10.8281 17.9062C11.0691 17.9062 11.3099 17.814 11.4932 17.6296C11.8581 17.2623 11.8563 16.6686 11.489 16.3037L8.10077 12.9375H17.8125C18.3303 12.9375 18.75 12.5178 18.75 12Z" fill="white"/>
</svg>
