<svg width="12" height="12" viewBox="0 0 12 12" fill="none" xmlns="http://www.w3.org/2000/svg">
<g clip-path="url(#clip0)">
<path d="M10.625 11.0078H1.37503C0.616516 11.0078 0 10.3913 0 9.63278V3.38275C0 2.62424 0.616516 2.00781 1.37503 2.00781H4.37503C4.58203 2.00781 4.75003 2.17581 4.75003 2.38281C4.75003 2.58981 4.58203 2.75781 4.37503 2.75781H1.37503C1.03052 2.75781 0.75 3.03824 0.75 3.38275V9.63278C0.75 9.9773 1.03052 10.2578 1.37503 10.2578H10.625C10.9695 10.2578 11.25 9.9773 11.25 9.63278V3.38275C11.25 3.03824 10.9695 2.75781 10.625 2.75781H7.62497C7.41797 2.75781 7.24997 2.58981 7.24997 2.38281C7.24997 2.17581 7.41797 2.00781 7.62497 2.00781H10.625C11.3835 2.00781 12 2.62424 12 3.38275V9.63278C12 10.3913 11.3835 11.0078 10.625 11.0078Z" fill="#1CA06F"/>
<path d="M7.12509 3.75778H4.87509C4.39261 3.75778 4.00012 3.3653 4.00012 2.88281V1.88278C4.00012 1.4003 4.39261 1.00781 4.87509 1.00781H7.12509C7.60757 1.00781 8.00006 1.4003 8.00006 1.88278V2.88281C8.00006 3.3653 7.60757 3.75778 7.12509 3.75778ZM4.87509 1.75781C4.80606 1.75781 4.75012 1.81384 4.75012 1.88278V2.88281C4.75012 2.95184 4.80606 3.00778 4.87509 3.00778H7.12509C7.19412 3.00778 7.25006 2.95184 7.25006 2.88281V1.88278C7.25006 1.81384 7.19412 1.75781 7.12509 1.75781H4.87509Z" fill="#1CA06F"/>
<path d="M3.75009 7.00784C3.06107 7.00784 2.50012 6.44681 2.50012 5.75787C2.50012 5.06885 3.06107 4.50781 3.75009 4.50781C4.43912 4.50781 5.00006 5.06885 5.00006 5.75787C5.00006 6.44681 4.43912 7.00784 3.75009 7.00784ZM3.75009 5.25781C3.47461 5.25781 3.25012 5.4823 3.25012 5.75787C3.25012 6.03336 3.47461 6.25784 3.75009 6.25784C4.02557 6.25784 4.25006 6.03336 4.25006 5.75787C4.25006 5.4823 4.02557 5.25781 3.75009 5.25781Z" fill="#FFA12A"/>
<path d="M5.625 9.50787C5.418 9.50787 5.25 9.33987 5.25 9.13287V8.88284C5.25 8.53833 4.96948 8.25781 4.62497 8.25781H2.87503C2.53052 8.25781 2.25 8.53833 2.25 8.88284V9.13287C2.25 9.33987 2.082 9.50787 1.875 9.50787C1.668 9.50787 1.5 9.33987 1.5 9.13287V8.88284C1.5 8.12433 2.11652 7.50781 2.87503 7.50781H4.62497C5.38348 7.50781 6 8.12433 6 8.88284V9.13287C6 9.33987 5.832 9.50787 5.625 9.50787Z" fill="#FFA12A"/>
<path d="M10.1251 5.50781H7.37512C7.16812 5.50781 7.00012 5.33981 7.00012 5.13281C7.00012 4.92581 7.16812 4.75781 7.37512 4.75781H10.1251C10.3321 4.75781 10.5001 4.92581 10.5001 5.13281C10.5001 5.33981 10.3321 5.50781 10.1251 5.50781Z" fill="#FFA12A"/>
<path d="M10.1251 7.50781H7.37512C7.16812 7.50781 7.00012 7.33981 7.00012 7.13281C7.00012 6.92581 7.16812 6.75781 7.37512 6.75781H10.1251C10.3321 6.75781 10.5001 6.92581 10.5001 7.13281C10.5001 7.33981 10.3321 7.50781 10.1251 7.50781Z" fill="#FFA12A"/>
<path d="M10.1251 9.50781H7.37512C7.16812 9.50781 7.00012 9.33981 7.00012 9.13281C7.00012 8.92581 7.16812 8.75781 7.37512 8.75781H10.1251C10.3321 8.75781 10.5001 8.92581 10.5001 9.13281C10.5001 9.33981 10.3321 9.50781 10.1251 9.50781Z" fill="#FFA12A"/>
</g>
<defs>
<clipPath id="clip0">
<rect width="12" height="12" fill="white"/>
</clipPath>
</defs>
</svg>
