<svg width="12" height="12" viewBox="0 0 12 12" fill="none" xmlns="http://www.w3.org/2000/svg">
<path d="M9.48418 7.43356C9.23851 7.17776 8.94219 7.04099 8.62813 7.04099C8.31662 7.04099 8.01776 7.17523 7.76196 7.43103L6.96163 8.22882C6.89578 8.19336 6.82993 8.16044 6.76661 8.12751C6.67544 8.08193 6.58933 8.03887 6.51588 7.99328C5.7662 7.51714 5.08491 6.89663 4.43148 6.09377C4.11489 5.69361 3.90215 5.35676 3.74765 5.01485C3.95533 4.8249 4.14782 4.62735 4.33524 4.4374C4.40615 4.36648 4.47707 4.29303 4.54798 4.22212C5.07985 3.69025 5.07985 3.00137 4.54798 2.4695L3.85656 1.77808C3.77805 1.69957 3.697 1.61852 3.62102 1.53748C3.46906 1.38045 3.3095 1.21836 3.14488 1.0664C2.89921 0.823259 2.60542 0.694092 2.29643 0.694092C1.98744 0.694092 1.68858 0.823259 1.43532 1.0664C1.43278 1.06893 1.43278 1.06893 1.43025 1.07146L0.569138 1.94017C0.244955 2.26435 0.0600693 2.65945 0.0195464 3.11787C-0.041238 3.85741 0.176573 4.5463 0.34373 4.99712C0.754024 6.1039 1.36693 7.12964 2.28123 8.22882C3.39055 9.55341 4.72527 10.5994 6.24995 11.3364C6.83246 11.6125 7.61 11.9392 8.47871 11.9949C8.53189 11.9975 8.58761 12 8.63827 12C9.22332 12 9.71466 11.7898 10.0996 11.3719C10.1022 11.3668 10.1072 11.3643 10.1098 11.3592C10.2415 11.1997 10.3934 11.0553 10.553 10.9008C10.6619 10.797 10.7733 10.6881 10.8822 10.5741C11.133 10.3132 11.2647 10.0093 11.2647 9.69778C11.2647 9.38372 11.1304 9.08233 10.8746 8.82907L9.48418 7.43356ZM10.3909 10.1005C10.3883 10.1005 10.3883 10.103 10.3909 10.1005C10.2921 10.2068 10.1908 10.3031 10.0819 10.4095C9.91727 10.5665 9.75011 10.7311 9.59309 10.916C9.33729 11.1895 9.0359 11.3187 8.6408 11.3187C8.60281 11.3187 8.56228 11.3187 8.52429 11.3162C7.77209 11.268 7.07307 10.9742 6.5488 10.7235C5.1153 10.0296 3.85656 9.04434 2.81056 7.79573C1.94692 6.7548 1.36947 5.79238 0.987031 4.75905C0.751492 4.12841 0.66538 3.63707 0.703371 3.17359C0.728697 2.87726 0.842668 2.63159 1.05288 2.42138L1.91653 1.55774C2.04063 1.44123 2.17233 1.37792 2.30149 1.37792C2.46105 1.37792 2.59022 1.47416 2.67127 1.5552C2.6738 1.55774 2.67633 1.56027 2.67886 1.5628C2.83336 1.70716 2.98025 1.85659 3.13475 2.01615C3.21326 2.0972 3.2943 2.17824 3.37535 2.26182L4.06677 2.95324C4.33524 3.22171 4.33524 3.46991 4.06677 3.73838C3.99333 3.81182 3.92241 3.88527 3.84896 3.95619C3.63622 4.174 3.4336 4.37661 3.21326 4.57416C3.20819 4.57923 3.20313 4.58176 3.2006 4.58682C2.98278 4.80464 3.02331 5.01738 3.0689 5.16174C3.07143 5.16934 3.07396 5.17694 3.07649 5.18454C3.25631 5.62016 3.50958 6.03045 3.89455 6.51926L3.89708 6.52179C4.5961 7.38291 5.33311 8.05407 6.14611 8.5682C6.24995 8.63405 6.35632 8.68724 6.45763 8.73789C6.5488 8.78348 6.63491 8.82653 6.70836 8.87212C6.71849 8.87719 6.72862 8.88479 6.73875 8.88985C6.82486 8.93291 6.90591 8.95317 6.98949 8.95317C7.1997 8.95317 7.3314 8.82147 7.37446 8.77841L8.24063 7.91224C8.32675 7.82612 8.46351 7.72228 8.62307 7.72228C8.7801 7.72228 8.90926 7.82106 8.98777 7.90717C8.99031 7.9097 8.99031 7.9097 8.99284 7.91224L10.3883 9.30774C10.6492 9.56608 10.6492 9.83201 10.3909 10.1005Z" fill="#1CA06F"/>
<path d="M6.48655 2.85442C7.15011 2.96586 7.7529 3.27991 8.23411 3.76112C8.71532 4.24233 9.02684 4.84511 9.14082 5.50867C9.16867 5.67583 9.31304 5.79233 9.47766 5.79233C9.49793 5.79233 9.51565 5.7898 9.53592 5.78727C9.72334 5.75687 9.84744 5.57959 9.81705 5.39217C9.68028 4.58931 9.30038 3.85736 8.72039 3.27738C8.1404 2.69739 7.40845 2.31749 6.60558 2.18072C6.41817 2.15033 6.24341 2.27443 6.21048 2.45932C6.17756 2.64421 6.29913 2.82403 6.48655 2.85442Z" fill="#FFA12A"/>
<path d="M11.9874 5.29339C11.762 3.97133 11.139 2.76831 10.1816 1.81095C9.22426 0.8536 8.02123 0.23056 6.69917 0.0051516C6.51429 -0.0277733 6.33953 0.0988608 6.30661 0.283747C6.27622 0.471165 6.40032 0.64592 6.58774 0.678845C7.76797 0.878927 8.84436 1.43865 9.7004 2.29216C10.5564 3.14821 11.1136 4.2246 11.3137 5.40483C11.3416 5.57199 11.4859 5.68849 11.6506 5.68849C11.6708 5.68849 11.6886 5.68596 11.7088 5.68342C11.8937 5.65556 12.0203 5.47828 11.9874 5.29339Z" fill="#FFA12A"/>
</svg>
