<svg width="18" height="18" viewBox="0 0 18 18" fill="none" xmlns="http://www.w3.org/2000/svg">
<g clip-path="url(#clip0)">
<path d="M4.62331 16.5938H2.134C1.83384 16.5938 1.65275 16.4262 1.57154 16.3264C1.43134 16.1539 1.37702 15.9294 1.42262 15.7104C2.15278 12.2032 5.24793 9.64192 8.82107 9.55881C8.88059 9.56102 8.94025 9.5625 9.00027 9.5625C9.0608 9.5625 9.12099 9.56099 9.18104 9.55874C10.0548 9.57867 10.9082 9.74296 11.7206 10.048C12.0841 10.1846 12.4895 10.0005 12.626 9.63693C12.7625 9.27341 12.5785 8.86802 12.2149 8.73151C12.0985 8.68778 11.9813 8.64686 11.8635 8.60804C13.0272 7.73511 13.7815 6.34461 13.7815 4.78125C13.7815 2.14488 11.6367 0 9.00027 0C6.36386 0 4.21902 2.14488 4.21902 4.78125C4.21902 6.34602 4.97459 7.73761 6.14006 8.6104C5.07233 8.96189 4.07037 9.5085 3.19351 10.2298C1.58574 11.5522 0.467879 13.3969 0.0458983 15.4239C-0.0863595 16.059 0.0720545 16.7113 0.480535 17.2136C0.886941 17.7134 1.48962 18 2.134 18H4.62331C5.01165 18 5.32644 17.6852 5.32644 17.2969C5.32644 16.9085 5.01165 16.5938 4.62331 16.5938ZM5.62527 4.78125C5.62527 2.92025 7.13927 1.40625 9.00027 1.40625C10.8613 1.40625 12.3753 2.92025 12.3753 4.78125C12.3753 6.58712 10.9495 8.06618 9.16459 8.15221C9.10985 8.15122 9.05511 8.15038 9.00027 8.15038C8.94528 8.15038 8.89033 8.15119 8.83542 8.15217C7.05071 8.0659 5.62527 6.58695 5.62527 4.78125Z" fill="#727C8A"/>
<path d="M17.4622 12.1151C17.1612 11.4418 16.4833 11.0056 15.7334 11.0039H13.5406C13.539 11.0039 13.5375 11.0039 13.5359 11.0039C12.7449 11.0039 12.0548 11.4701 11.7771 12.1924C11.7401 12.2886 11.695 12.4096 11.6478 12.5508H7.04424C6.85415 12.5508 6.67218 12.6277 6.53975 12.7641L5.33192 14.0082C5.06589 14.2822 5.06723 14.7185 5.33491 14.9908L6.56538 16.2428C6.69756 16.3773 6.87827 16.4531 7.06685 16.4531H9.352C9.74034 16.4531 10.0551 16.1383 10.0551 15.75C10.0551 15.3616 9.74034 15.0468 9.352 15.0468H7.36167L6.81928 14.495L7.34159 13.957H12.1753C12.4992 13.957 12.7812 13.7357 12.8582 13.4211C12.9151 13.1888 12.9865 12.9655 13.0897 12.697C13.1577 12.52 13.3287 12.4102 13.5376 12.4102C13.5381 12.4102 13.5385 12.4102 13.539 12.4102H15.7317C15.9305 12.4106 16.1017 12.5175 16.1784 12.689C16.3671 13.1113 16.5925 13.7651 16.5942 14.4815C16.5959 15.2032 16.3707 15.872 16.1815 16.3059C16.1052 16.4809 15.9326 16.5937 15.7399 16.5937C15.7395 16.5937 15.7392 16.5937 15.7388 16.5937H13.5195C13.325 16.5933 13.1428 16.4681 13.0662 16.2823C12.9839 16.083 12.9127 15.8553 12.8483 15.5863C12.7579 15.2087 12.3784 14.9758 12.0008 15.0662C11.6232 15.1566 11.3903 15.536 11.4807 15.9137C11.5623 16.2546 11.6557 16.5506 11.7662 16.8185C12.0615 17.5344 12.7484 17.9982 13.5179 18H15.7372C15.7387 18 15.7401 18 15.7416 18C16.4922 17.9999 17.1706 17.5559 17.4706 16.8679C17.7136 16.3106 18.0027 15.4437 18.0004 14.4782C17.9982 13.5153 17.7065 12.6616 17.4622 12.1151Z" fill="#727C8A"/>
<path d="M15.1523 15.1875C15.5407 15.1875 15.8555 14.8727 15.8555 14.4844C15.8555 14.096 15.5407 13.7812 15.1523 13.7812C14.764 13.7812 14.4492 14.096 14.4492 14.4844C14.4492 14.8727 14.764 15.1875 15.1523 15.1875Z" fill="#727C8A"/>
</g>
<defs>
<clipPath id="clip0">
<rect width="18" height="18" fill="white"/>
</clipPath>
</defs>
</svg>
