<svg width="12" height="12" viewBox="0 0 12 12" fill="none" xmlns="http://www.w3.org/2000/svg">
<path d="M8.52446 5.79858C8.36217 6.00295 8.17985 6.19161 7.97044 6.36189C9.16576 7.04755 9.97274 8.33661 9.97274 9.81064C9.97274 10.6071 8.22765 11.231 5.9999 11.231C3.77214 11.231 2.02705 10.6071 2.02705 9.81064C2.02705 8.33661 2.83403 7.04755 4.02936 6.36189C3.81997 6.19161 3.63764 6.00297 3.47533 5.79858C2.14419 6.63919 1.25812 8.12329 1.25812 9.81064C1.25812 10.3218 1.538 11.0341 2.87142 11.5251C3.70317 11.8313 4.81422 11.9999 5.99992 11.9999C7.18562 11.9999 8.29667 11.8313 9.12842 11.5251C10.4618 11.0341 10.7417 10.3218 10.7417 9.81064C10.7417 8.12329 9.8556 6.63919 8.52446 5.79858Z" fill="#1CA06F"/>
<path d="M6.00031 6C7.69518 6 9.00031 4.62543 9.00031 3.00001C9.00031 1.37385 7.69452 0 6.00031 0C4.30543 0 3.00031 1.37457 3.00031 2.99999C3.00031 4.62615 4.30612 6 6.00031 6ZM6.00031 0.7317C7.17362 0.7317 8.12822 1.74924 8.12822 2.99999C8.12822 4.25073 7.17362 5.26827 6.00031 5.26827C4.82699 5.26827 3.87239 4.25073 3.87239 2.99999C3.87239 1.74924 4.82699 0.7317 6.00031 0.7317Z" fill="#FFA12A"/>
</svg>
